<svg xmlns="http://www.w3.org/2000/svg" width="200" height="300" viewBox="0 0 200 300"><g fill="#353535"><path d="M115.998 248.432c1.871-2.486 2.807-5.804 2.807-9.965 0-9.3-3.628-13.956-10.895-13.956H96.957v27.646h10.638c3.737 0 6.538-1.246 8.403-3.725z"/><path d="M29.716 208.907h17.132l28.761 91.421h2.616v-91.421h29.881c9.382 0 16.627 2.431 21.744 7.294 5.118 4.862 7.68 11.774 7.68 20.732 0 12.313-4.481 20.934-13.444 25.861l16.061 37.533h18.895V224.51h-22.555v-15.604h61.578v-60.181H70.394l12.509 32.389H55.306l-25.372-62.09v-3.508h168.13V67.813H70.394l12.509 32.394H55.306L29.934 38.111v-3.508h168.13V17.27c0-9.263-7.505-16.763-16.762-16.763H18.882C9.62.507 2.12 8.007 2.12 17.27v266.296c0 2.746.724 5.303 1.893 7.587l25.703-82.246z"/><path d="M96.957 300.328h22.701l-13.401-32.567h-9.3zm80.87-75.817v75.817h3.476c9.257 0 16.762-7.5 16.762-16.762V224.51h-20.238zM29.586 267.064h17.328l-8.664-33.056zm-8.691 33.264h34.781l-4.623-17.659H25.512z"/></g></svg>