<svg xmlns="http://www.w3.org/2000/svg" width="200" height="300" viewBox="0 0 200 300"><g fill="#757575"><path d="M115.998 248.432c1.871-2.486 2.807-5.804 2.807-9.965 0-9.3-3.627-13.955-10.895-13.955H96.957v27.646h10.639c3.736-.002 6.537-1.247 8.402-3.726z"/><path d="M29.716 208.906h17.132l28.761 91.422h2.616v-91.421h29.88c9.383 0 16.627 2.431 21.744 7.294 5.118 4.861 7.68 11.773 7.68 20.732 0 12.313-4.48 20.934-13.443 25.86l16.061 37.533h18.896V224.51h-22.556v-15.604h61.578v-60.181H70.394l12.509 32.388H55.306l-25.372-62.089v-3.508h168.13V67.813H70.394l12.509 32.394H55.306L29.934 38.111v-3.508h168.13V17.27c0-9.263-7.506-16.763-16.762-16.763H18.882C9.62.507 2.12 8.007 2.12 17.27v266.296c0 2.746.724 5.303 1.893 7.586l25.703-82.246z"/><path d="M96.957 300.328h22.701l-13.401-32.566h-9.3zm80.87-75.816v75.816h3.476c9.258 0 16.762-7.5 16.762-16.762V224.51h-20.237v.002zM29.586 267.064h17.328l-8.664-33.056zm-8.691 33.264h34.781l-4.623-17.659H25.512z"/></g></svg>