<?xml version="1.0" encoding="utf-8"?>
<!-- Generator: Adobe Illustrator 16.0.0, SVG Export Plug-In . SVG Version: 6.00 Build 0)  -->
<!DOCTYPE svg PUBLIC "-//W3C//DTD SVG 1.1//EN" "http://www.w3.org/Graphics/SVG/1.1/DTD/svg11.dtd">
<svg version="1.1" id="Camada_1" xmlns="http://www.w3.org/2000/svg" xmlns:xlink="http://www.w3.org/1999/xlink" x="0px" y="0px"
	 width="200px" height="300px" viewBox="0 0 200 300" enable-background="new 0 0 200 300" xml:space="preserve">
<g>
	<path fill="#353535" d="M115.998,248.432c1.871-2.486,2.807-5.804,2.807-9.965c0-9.3-3.628-13.956-10.895-13.956H96.957v27.646
		h10.638C111.332,252.157,114.133,250.911,115.998,248.432z"/>
	<path fill="#353535" d="M29.716,208.907h17.132l28.761,91.421h2.616v-91.421h29.881c9.382,0,16.627,2.431,21.744,7.294
		c5.118,4.862,7.68,11.774,7.68,20.732c0,12.313-4.481,20.934-13.444,25.861l16.061,37.533h18.895v-75.817h-22.555v-15.604h61.578
		v-60.181H70.394l12.509,32.389H55.306l-25.372-62.09v-3.508h168.13V67.813H70.394l12.509,32.394H55.306L29.934,38.111v-3.508
		h168.13V17.27c0-9.263-7.505-16.763-16.762-16.763H18.882C9.62,0.507,2.12,8.007,2.12,17.27v266.296
		c0,2.746,0.724,5.303,1.893,7.587L29.716,208.907z"/>
	<polygon fill="#353535" points="96.957,300.328 119.658,300.328 106.257,267.761 96.957,267.761 	"/>
	<path fill="#353535" d="M177.827,224.511v75.817h3.476c9.257,0,16.762-7.5,16.762-16.762v-59.056H177.827z"/>
	<polygon fill="#353535" points="29.586,267.064 46.914,267.064 38.25,234.008 	"/>
	<polygon fill="#353535" points="20.895,300.328 55.676,300.328 51.053,282.669 25.512,282.669 	"/>
</g>
</svg>
