<?xml version="1.0" encoding="utf-8"?>
<!-- Generator: Adobe Illustrator 16.0.0, SVG Export Plug-In . SVG Version: 6.00 Build 0)  -->
<!DOCTYPE svg PUBLIC "-//W3C//DTD SVG 1.1//EN" "http://www.w3.org/Graphics/SVG/1.1/DTD/svg11.dtd">
<svg version="1.1" id="Camada_1" xmlns="http://www.w3.org/2000/svg" xmlns:xlink="http://www.w3.org/1999/xlink" x="0px" y="0px"
	 width="200px" height="300px" viewBox="0 0 200 300" enable-background="new 0 0 200 300" xml:space="preserve">
<g>
	<path fill="#FFFFFF" d="M115.998,248.432c1.871-2.486,2.807-5.804,2.807-9.965c0-9.3-3.627-13.955-10.895-13.955H96.957v27.646
		h10.639C111.332,252.156,114.133,250.911,115.998,248.432z"/>
	<path fill="#FFFFFF" d="M29.716,208.906h17.132l28.761,91.422h2.616v-91.421h29.88c9.383,0,16.627,2.431,21.744,7.294
		c5.117,4.861,7.68,11.773,7.68,20.732c0,12.313-4.48,20.934-13.443,25.859l16.061,37.533h18.896V224.51h-22.557v-15.604h61.578
		v-60.181H70.394l12.509,32.388H55.306l-25.372-62.089v-3.508h168.13V67.813H70.394l12.509,32.394H55.306L29.934,38.111v-3.508
		h168.13V17.27c0-9.263-7.506-16.763-16.762-16.763H18.882C9.62,0.507,2.12,8.007,2.12,17.27v266.296
		c0,2.746,0.724,5.303,1.893,7.586L29.716,208.906z"/>
	<polygon fill="#FFFFFF" points="96.957,300.328 119.658,300.328 106.257,267.762 96.957,267.762 	"/>
	<path fill="#FFFFFF" d="M177.827,224.512v75.816h3.476c9.258,0,16.762-7.5,16.762-16.762V224.51h-20.236L177.827,224.512
		L177.827,224.512z"/>
	<polygon fill="#FFFFFF" points="29.586,267.064 46.914,267.064 38.25,234.008 	"/>
	<polygon fill="#FFFFFF" points="20.895,300.328 55.676,300.328 51.053,282.669 25.512,282.669 	"/>
</g>
</svg>
